<?xml version="1.0" encoding="UTF-8" standalone="no"?>
<!-- Created with Inkscape (http://www.inkscape.org/) -->

<svg
   width="20mm"
   height="20mm"
   viewBox="0 0 20 20"
   version="1.1"
   id="svg5"
   inkscape:version="1.2.2 (b0a8486541, 2022-12-01)"
   sodipodi:docname="AND.svg"
   xmlns:inkscape="http://www.inkscape.org/namespaces/inkscape"
   xmlns:sodipodi="http://sodipodi.sourceforge.net/DTD/sodipodi-0.dtd"
   xmlns="http://www.w3.org/2000/svg"
   xmlns:svg="http://www.w3.org/2000/svg">
  <sodipodi:namedview
     id="namedview7"
     pagecolor="#ffffff"
     bordercolor="#000000"
     borderopacity="0.25"
     inkscape:showpageshadow="2"
     inkscape:pageopacity="0.0"
     inkscape:pagecheckerboard="0"
     inkscape:deskcolor="#d1d1d1"
     inkscape:document-units="mm"
     showgrid="true"
     inkscape:zoom="1"
     inkscape:cx="40"
     inkscape:cy="35"
     inkscape:window-width="1920"
     inkscape:window-height="1011"
     inkscape:window-x="0"
     inkscape:window-y="32"
     inkscape:window-maximized="1"
     inkscape:current-layer="layer1">
    <inkscape:grid
       type="xygrid"
       id="grid142"
       originx="0"
       originy="0" />
  </sodipodi:namedview>
  <defs
     id="defs2" />
  <g
     inkscape:label="Calque 1"
     inkscape:groupmode="layer"
     id="layer1">
    <path
       style="fill:#000000;stroke-width:0.598084"
       d="m 4.7824536,4.7762749 7.5726674,-0.080986 -0.08185,9.2193534 -7.640815,-0.03003 z"
       id="path144" />
    <path
       id="path146"
       style="fill:#000000;stroke-width:0.598084"
       d="m 12.175045,4.7062299 -0.01955,9.1661451 4.125593,-4.3389123 z m 3.426726,4.6759718 c 0.0015,-1.42e-4 0.0031,6.3e-5 0.0047,0 0.06721,-0.003 0.09859,0.08015 0.01585,0.15126 -0.02529,0.0218 -0.05053,0.04326 -0.07448,0.06669 -0.01104,0.01203 -0.01376,0.01243 -0.01376,0.01081 v 0.0012 c -2e-5,0.03201 7.5e-5,0.06447 0,0.09648 -1.26e-4,0.0529 -8.26e-4,0.105506 -0.0011,0.1584 -5.08e-4,0.08214 -3.57e-4,0.1644163 -0.0011,0.2465433 -0.0015,0.148621 -0.145784,0.146238 -0.144347,-0.0024 7.86e-4,-0.08189 6.43e-4,-0.1634573 0.0011,-0.2453533 3.2e-4,-0.0527 10e-4,-0.105708 0.0011,-0.1584 7.6e-5,-0.03191 -1.8e-5,-0.06336 0,-0.09527 -6.23e-4,-0.04671 0.02342,-0.08193 0.05271,-0.114345 0.02762,-0.02815 0.05732,-0.05416 0.08705,-0.0798 0.02578,-0.02222 0.05066,-0.0336 0.07219,-0.03574 z" />
    <path
       style="fill:#000000;stroke-width:0.598084"
       d="m 12.289035,4.6798568 4.010226,4.8465649"
       id="path148" />
    <path
       id="path150"
       style="fill:#000000;stroke-width:0.598084"
       d="m 12.281592,4.8098493 -0.03897,9.0339387 C 16.380683,13.573236 16.298327,9.5537097 16.298327,9.5537097 16.615239,5.3848495 12.281576,4.8098493 12.281576,4.8098493 Z m 3.195302,2.9454094 c 0.0011,-1.61e-4 0.0025,9.8e-5 0.0034,0 0.03859,-0.0035 0.0767,0.03561 0.07104,0.114337 -0.0049,0.07046 -4.85e-4,0.139483 0.01376,0.20843 0.0047,0.03176 0.01755,0.05586 0.03666,0.0798 0.01956,0.02282 0.03896,0.04632 0.0573,0.07027 0.08902,0.116286 -0.02466,0.209412 -0.113408,0.0929 -0.01793,-0.02348 -0.03715,-0.04537 -0.05611,-0.06789 -0.033,-0.04258 -0.05703,-0.08844 -0.06646,-0.142925 -0.01619,-0.08091 -0.0217,-0.163908 -0.01584,-0.246542 0.0047,-0.06731 0.03693,-0.103382 0.06989,-0.108386 z m 0.124884,1.626943 c 0.0015,-1.42e-4 0.0033,6.3e-5 0.0047,0 0.06721,-0.003 0.09859,0.08015 0.01584,0.15126 -0.02529,0.0218 -0.05053,0.04326 -0.07447,0.06669 -0.01104,0.01203 -0.01376,0.01243 -0.01376,0.01081 v 0.0012 c -2.1e-5,0.03201 7.5e-5,0.06447 0,0.09648 -1.28e-4,0.0529 -8.23e-4,0.105506 -0.0011,0.1584 -5.04e-4,0.08214 -3.59e-4,0.1644163 -0.0011,0.2465433 -0.0015,0.148621 -0.145787,0.146238 -0.144348,-0.0024 7.89e-4,-0.08189 6.46e-4,-0.1634573 0.0011,-0.2453533 3.17e-4,-0.0527 10e-4,-0.105708 0.0011,-0.1584 7.1e-5,-0.03191 -2e-5,-0.06336 0,-0.09527 -6.27e-4,-0.04671 0.02342,-0.08193 0.05271,-0.114345 0.02762,-0.02815 0.05731,-0.05416 0.08705,-0.0798 0.02583,-0.02222 0.0507,-0.0336 0.07219,-0.03574 z" />
    <rect
       style="fill:#000000;stroke-width:0.598084"
       id="rect267"
       width="5.0425153"
       height="0.66662985"
       x="0.12989007"
       y="6.6813135" />
    <rect
       style="fill:#000000;stroke-width:0.598084"
       id="rect269"
       width="4.9486403"
       height="0.64627522"
       x="0.10938227"
       y="11.414335" />
    <rect
       style="fill:#000000;stroke-width:0.598084"
       id="rect271"
       width="3.8871179"
       height="0.67165649"
       x="16.001173"
       y="8.4720793" />
    <path
       style="fill:#f9f9f9;stroke-width:0.598084"
       d="m 5.5242965,5.324727 -0.013089,7.985714 6.9347245,-0.01203 2.864971,-4.3559643 -3.076066,-3.6215299 z"
       id="path433" />
    <path
       id="path439"
       style="fill:#f9f9f9;stroke-width:0.598084"
       d="m 12.197962,5.3458112 1.559268,5.3179358 c 0.570731,-0.342772 1.178291,-0.8698843 1.537499,-1.7150793 0.104931,-0.246871 0.167781,-0.478031 0.195911,-0.694368 l -0.0011,-0.0012 c -0.033,-0.04258 -0.05703,-0.08844 -0.06644,-0.142925 -0.01619,-0.08091 -0.02172,-0.163908 -0.01585,-0.246542 0.0048,-0.06948 0.03926,-0.105265 0.07331,-0.108386 0.0043,-3.83e-4 0.0084,-6.17e-4 0.01274,0 C 15.25168,5.8868861 12.198021,5.3458015 12.198021,5.3458015 Z m 1.559268,5.3179358 c -1.347684,0.809399 -2.489898,0.593992 0.329955,1.126711 z" />
    <path
       id="path441"
       style="fill:#f9f9f9;stroke-width:0.598084"
       d="M 15.316498,8.9820167 12.412199,13.27567 c 0,0 3.067126,-0.22308 3.070424,-3.057367 -0.04222,0.02012 -0.09596,-0.01594 -0.09509,-0.107195 7.84e-4,-0.08189 6.43e-4,-0.1634553 0.0011,-0.2453503 3.17e-4,-0.0527 10e-4,-0.105708 0.0011,-0.158399 7.8e-5,-0.03191 -1.7e-5,-0.06336 0,-0.09527 -5.06e-4,-0.03795 0.01518,-0.06785 0.03666,-0.09529 -0.02648,-0.170482 -0.06319,-0.348567 -0.109972,-0.53477 z" />
    <path
       id="path443"
       style="fill:#f9f9f9;stroke-width:0.598084"
       d="m 15.279836,7.8576877 -0.996739,4.0697383 0.965807,-1.749617 c 0.05188,-0.09402 0.09843,-0.1842703 0.13978,-0.2715563 5.7e-5,-0.01338 -8.1e-5,-0.02711 0,-0.04051 3.18e-4,-0.0527 0.001,-0.105708 0.0011,-0.158399 7.3e-5,-0.03191 -2.1e-5,-0.06336 0,-0.09527 -6.23e-4,-0.04671 0.02341,-0.08193 0.0527,-0.114345 0.02762,-0.02815 0.05731,-0.05416 0.08705,-0.0798 0.02106,-0.01814 0.04213,-0.02886 0.06073,-0.03336 0.130057,-0.443113 0.110621,-0.77233 0.03898,-1.009992 -0.02565,-0.0012 -0.0559,-0.01719 -0.08363,-0.05359 -0.01794,-0.02348 -0.03716,-0.04537 -0.05615,-0.06789 -0.033,-0.04258 -0.05705,-0.08844 -0.06646,-0.142924 -0.0093,-0.04628 -0.01518,-0.09335 -0.01733,-0.14054 -0.0704,-0.07727 -0.126016,-0.111957 -0.126016,-0.111957 z" />
    <rect
       style="fill:#f9f9f9;stroke-width:0.598084"
       id="rect714"
       width="1.8026006"
       height="2.0055776"
       x="-1.7336347"
       y="5.9766636" />
    <rect
       style="fill:#f9f9f9;stroke-width:0.598084"
       id="rect716"
       width="1.694663"
       height="2.0818529"
       x="-1.7188045"
       y="10.779148" />
    <rect
       style="fill:#f9f9f9;stroke-width:0.598084"
       id="rect718"
       width="2.2434168"
       height="3.0653298"
       x="19.858122"
       y="7.1489506" />
  </g>
</svg>
